<svg width="160" height="212" viewBox="0 0 160 212" fill="none" xmlns="http://www.w3.org/2000/svg">
<path d="M32.5 36.5L0 54.5V166L32.5 147.5V36.5Z" fill="#D1DFE1"/>
<path d="M79.5 65.5V28.5L95.5 0L52.5 24.5V80.5L79.5 65.5Z" fill="#D1DFE1"/>
<path d="M79.5 120L53.5 105L79.5 89L106 105L79.5 120Z" fill="#D1DFE1"/>
<path d="M0 166L79.5 212L159.5 166L127 147.5L79 175L32.5 147L0 166Z" fill="#155152"/>
<path d="M79.5 150.5V120L53.5 105V135.5L79.5 150.5Z" fill="#155152"/>
<path d="M127 93.5V147.5L159.5 166V74.5L79.5 28.5V65.5L127 93.5Z" fill="#155152"/>
<path d="M79.5 150.5V120L106 105V135.5L79.5 150.5Z" fill="#155152"/>
</svg>
